<?xml version="1.0" encoding="UTF-8"?>
<svg width="329px" height="189px" viewBox="0 0 329 189" version="1.1" xmlns="http://www.w3.org/2000/svg" xmlns:xlink="http://www.w3.org/1999/xlink">
    <!-- Generator: Sketch 47.1 (45422) - http://www.bohemiancoding.com/sketch -->
    <title>Group</title>
    <desc>Created with Sketch.</desc>
    <defs>
        <path d="M0.151264368,5.67371569 C0.151264368,2.54020904 2.69418084,0 5.83813271,0 L266.740258,0 C269.881029,0 272.427126,2.54291795 272.427126,5.67371569 L272.427126,170.526316 L0.151264368,170.526316 L0.151264368,5.67371569 Z" id="path-1"></path>
        <path d="M134.247126,170.526316 L190.971264,170.526316 L190.971264,173.368421 C190.971264,174.938072 189.706969,176.210526 188.119432,176.210526 L137.098959,176.210526 C135.523935,176.210526 134.247126,174.934879 134.247126,173.368421 L134.247126,170.526316 Z" id="path-3"></path>
    </defs>
    <g id="SVG's" stroke="none" stroke-width="1" fill="none" fill-rule="evenodd">
        <g id="Group" transform="translate(0.000000, 9.000000)">
            <g id="Group-Copy-3">
                <g id="InnovativeSolutions" transform="translate(26.320000, 0.000000)">
                    <mask id="mask-2" fill="white">
                        <use xlink:href="#path-1"></use>
                    </mask>
                    <path stroke="#FFFFFF" stroke-width="8.51555929" d="M-4.10651528,5.67371569 C-4.10651528,0.185765118 0.345609424,-4.25777965 5.83813271,-4.25777965 L266.740258,-4.25777965 C272.229707,-4.25777965 276.684906,0.188580836 276.684906,5.67371569 L276.684906,174.784095 L-4.10651528,174.784095 L-4.10651528,5.67371569 Z"></path>
                </g>
                <path d="M0,170.526316 L329,170.526316 L329,175.263158 C329,177.879244 326.877486,180 324.254188,180 L4.74581224,180 C2.12477251,180 0,177.87392 0,175.263158 L0,170.526316 Z" id="Rectangle-2-Copy-3" fill="#FFFFFF"></path>
                <g id="Rectangle-2-Copy-4">
                    <use fill="#FFFFFF" fill-rule="evenodd" xlink:href="#path-3"></use>
                    <path stroke="#FA7921" stroke-width="0.5" d="M134.497126,170.776316 L134.497126,173.368421 C134.497126,174.797762 135.662965,175.960526 137.098959,175.960526 L188.119432,175.960526 C189.564597,175.960526 190.721264,174.8043 190.721264,173.368421 L190.721264,170.776316 L134.497126,170.776316 Z"></path>
                </g>
            </g>
            <g id="minibag-copy" transform="translate(99.000000, 18.000000)">
                <path d="M36,41.52 L36,34 L96,34 L96,41.52 C94.8,42.62 94,44.22 94,46 C94,49.32 96.68,52 100,52 C103.32,52 106,49.32 106,46 C106,44.2 105.2,42.6 104,41.52 L104,34 L121,34 L132,130 L0,130 L9,34 L28,34 L28,41.52 C26.8,42.62 26,44.22 26,46 C26,49.32 28.68,52 32,52 C35.32,52 38,49.32 38,46 C38,44.2 37.2,42.6 36,41.52 Z M118,83.92 C118,83.4 117.6,83 117.08,83 C116.56,83 116.16,83.4 116.16,83.92 C116.16,84.44 116.56,84.84 117.08,84.84 C117.6,84.84 118,84.44 118,83.92 Z M108.14,82.16 C106.24,82.24 104.3,82.46 102.74,83.16 C101.38,83.72 99.9,84.82 99.7,86.5 C99.6,87.36 99.86,88.3 100.24,88.9 C101.44,90.78 104.28,90.9 106.64,91.58 C107.3,91.58 108.34,91.98 108.4,92.58 C108.48,93.38 107.46,93.58 106.6,93.58 C104,93.78 101.92,92.98 100.44,91.78 C100.3,91.58 100.16,91.38 100.04,91.58 L100.04,95.18 C101.24,95.78 102.92,96.18 104.64,96.38 C106.38,96.58 108.28,96.78 110.14,96.58 C111.94,96.38 113.44,95.98 114.68,95.38 C115.74,94.78 117.08,93.58 117.08,91.98 C117.08,91.18 116.84,90.38 116.52,89.98 C115.72,88.86 114.16,88.18 112.62,87.82 C112.02,87.62 111.02,87.54 110.22,87.42 C109.42,87.22 108.22,87.02 108.42,85.92 C108.62,84.46 111.42,84.72 112.62,85.04 C113.82,85.28 114.62,85.64 115.22,86.04 C115.42,86.1 115.42,86.24 115.62,86.16 L115.62,82.96 C115.02,82.22 113.82,82.04 112.62,81.96 C111.62,81.76 110.42,81.62 109.22,81.62 L108.62,81.62 L108.14,82.16 Z M94.94,82.42 C93.74,82.62 92.74,83.22 92.5,84.22 C92.2,85.42 92.9,86.62 93.8,86.82 L93.8,88.02 C95,87.82 96.1,87.42 96.94,86.82 C97.38,86.42 97.78,86.02 97.8,85.22 C97.8,83.62 96.72,82.82 95.04,82.82 L94.92,82.82 L94.94,82.42 Z M82.14,82.42 C82.1,82.42 82.1,82.62 82.1,82.62 L82.1,96.42 L97.7,96.42 L97.7,92 C97.6,91.92 97.54,92.08 97.5,92.12 C97.2,92.38 96.74,92.62 96.26,92.66 C95.26,92.76 93.86,92.72 92.54,92.66 C91.54,92.66 90.5,92.6 89.7,92.66 L89.7,82.4 L82.1,82.4 L82.14,82.42 Z M71.2,96.42 L78.9,96.42 L78.9,82.42 L71.3,82.42 L71.3,87.82 L66.2,87.82 L66.2,82.62 L58.72,82.62 L58.72,96.42 L66.32,96.42 L66.32,91.62 L71.28,91.62 L71.28,96.42 L71.2,96.42 Z M43.5,96.82 L47.82,96.82 C52.22,96.82 55.02,95.42 55.82,91.62 C56.42,88.62 55.62,86.22 54.42,84.62 C53.02,83.22 50.82,82.42 48.02,82.42 C45.22,82.42 42.22,82.38 40.02,83.16 C38.02,83.9 36.42,85.3 35.82,87.72 C35.62,89.06 35.62,90.6 35.82,91.72 C36.62,95.4 39.42,97.06 43.82,97.06 L43.5,96.82 Z M26.4,82.62 L21.08,88.22 L21.02,88.22 L21.02,82.62 L14,82.62 L14,96.42 L21,96.42 L21,91.62 L21.04,91.62 L26.36,96.42 L34.2,96.42 L27.76,90.7 L35.2,82.78 L26.36,82.78 L26.4,82.62 Z" id="Shape" fill="#FFFFFF" fill-rule="nonzero"></path>
                <path d="M32,46.12 L32,34 C32,15.2 47.2,0 66,0 C84.8,0 100,15.2 100,34 L100,46.12" id="Shape" stroke="#FFFFFF" stroke-width="4"></path>
                <circle id="Oval" fill="#FFFFFF" fill-rule="nonzero" cx="32" cy="46" r="4"></circle>
                <circle id="Oval" fill="#FFFFFF" fill-rule="nonzero" cx="100" cy="46" r="4"></circle>
                <path d="M43.36,85.8 C42.8,86.54 42.56,87.92 42.56,89.28 C42.56,91.8 42.82,93.68 45.24,93.88 C46.44,93.98 47.44,93.68 47.94,93.04 C48.58,92.28 48.74,90.8 48.74,89.44 C48.74,87.56 48.4,85.84 47.26,85.12 C46.8,84.84 46.26,84.72 45.76,84.72 C44.76,84.72 43.82,85.16 43.36,85.78 L43.36,85.8 Z M116.3,83.92 C116.3,83.48 116.64,83.12 117.1,83.12 C117.5,83.12 117.86,83.48 117.86,83.92 C117.86,84.36 117.52,84.72 117.06,84.72 C116.66,84.72 116.3,84.36 116.3,83.92 Z M116.9,84.46 L116.9,84 L117.1,84 L117.4,84.46 L117.56,84.46 L117.24,83.98 C117.38,83.78 117.5,83.78 117.5,83.58 C117.5,83.38 117.4,83.18 117.16,83.18 L116.76,83.18 L116.76,84.18 L116.88,84.18 L116.9,84.46 Z" id="Shape" fill="#FFFFFF" fill-rule="nonzero"></path>
                <path d="M117.06,83.86 C117.22,83.86 117.38,83.86 117.38,83.66 C117.38,83.54 117.18,83.5 116.98,83.5 L116.78,83.5 L116.78,83.86 L116.98,83.86 L117.06,83.86 Z" id="Shape" fill="#FFFFFF" fill-rule="nonzero"></path>
            </g>
        </g>
    </g>
</svg>