<?xml version="1.0" encoding="UTF-8"?>
<svg width="105px" height="186px" viewBox="0 0 105 186" version="1.1" xmlns="http://www.w3.org/2000/svg" xmlns:xlink="http://www.w3.org/1999/xlink">
    <!-- Generator: Sketch 47.1 (45422) - http://www.bohemiancoding.com/sketch -->
    <title>nationwide copy 3</title>
    <desc>Created with Sketch.</desc>
    <defs></defs>
    <g id="SVG's" stroke="none" stroke-width="1" fill="none" fill-rule="evenodd">
        <g id="nationwide-copy-3" fill-rule="nonzero">
            <path d="M2.05882353,22.7333333 C0.905882353,22.7333333 0,23.6633333 0,24.8 L0,31 C0,32.1573333 0.926470588,33.0666667 2.05882353,33.0666667 L2.05882353,37.2 C0.905882353,37.2 0,38.13 0,39.2666667 L0,55.8 C0,56.916 0.926470588,57.8666667 2.05882353,57.8666667 L2.05882353,59.9333333 C0.905882353,59.9333333 0,60.8633333 0,62 L0,78.5333333 C0,79.6493333 0.926470588,80.6 2.05882353,80.6 L2.05882353,175.666667 C2.05882353,181.35 6.65,186 12.3529412,186 L92.6470588,186 C98.35,186 102.941176,181.370667 102.941176,175.666667 L102.941176,57.8666667 C104.094118,57.8666667 105,56.9366667 105,55.8 L105,39.2666667 C105,38.1506667 104.073529,37.2 102.941176,37.2 L102.941176,10.3333333 C102.941176,4.65 98.35,0 92.6470588,0 L12.3529412,0 C6.65,0 2.05882353,4.62933333 2.05882353,10.3333333 L2.05882353,22.7333333 Z M45.2941176,174.633333 C45.2941176,170.644667 48.5264706,167.4 52.5,167.4 C56.4735294,167.4 59.7058824,170.644667 59.7058824,174.633333 C59.7058824,178.622 56.4735294,181.866667 52.5,181.866667 C48.5264706,181.866667 45.2941176,178.622 45.2941176,174.633333 Z M6.17647059,18.6 L98.8235294,18.6 L98.8235294,163.266667 L6.17647059,163.266667 L6.17647059,18.6 Z M43.2352941,11.3666667 C43.2352941,10.788 43.6882353,10.3333333 44.2647059,10.3333333 L60.7352941,10.3333333 C61.2911765,10.3333333 61.7647059,10.8086667 61.7647059,11.3666667 C61.7647059,11.9453333 61.3117647,12.4 60.7352941,12.4 L44.2647059,12.4 C43.7088235,12.4 43.2352941,11.9246667 43.2352941,11.3666667 Z" id="Shape" fill="#FFFFFF"></path>
            <path d="M71.0981912,118.808756 L89,118.808756 L89,59.6451613 L72.6072351,59.6451613 L72.6072351,96.516129 L67.8527132,91.8502304 L67.8527132,62.4654378 C67.7906977,45.1912442 69.8578811,37 69.8578811,37 C64.2764858,37 61.3824289,42.2672811 60.7622739,43.843318 C57.6614987,44.1543779 55.0981912,45.9585253 53.3824289,49.4423963 C52.4108527,51.4331797 51.9354005,53.3410138 51.7700258,54.2741935 C45.1963824,55.7880184 44.6382429,67.5046083 45.0516796,69.6198157 L34.8604651,59.6658986 L17,59.6658986 L17,118.808756 L33.3927649,118.808756 L33.3927649,83.0368664 L41.3100775,90.5645161 C41.9302326,92.7211982 42.5503876,93.5921659 42.5503876,93.5921659 L39.4702842,90.9170507 C38.9121447,96.7235023 40.503876,99.6267281 42.0542636,101.907834 L38.2713178,98.5898618 C37.9612403,104.396313 40.751938,107.921659 42.4470284,109.373272 L37.4857881,106.884793 C37.1343669,110.410138 40.5865633,115.387097 42.5917313,116.423963 L38.4573643,115.801843 C39.4909561,120.571429 42.7984496,122.230415 42.7984496,122.230415 C42.7984496,122.230415 35.5633075,122.085253 32.255814,122.085253 C23.1602067,122.085253 17.1033592,122.914747 17.1033592,122.914747 C17.1033592,122.914747 21.1550388,126.979263 26.4056848,127.186636 L21.754522,130.089862 C25.0620155,131.126728 28.3074935,130.711982 28.3074935,130.711982 L25.620155,133.822581 C25.620155,133.822581 34.0956072,130.504608 37.6098191,130.711982 C40.503876,130.919355 53.7338501,136 62.622739,136 C68.6175711,136 72.8966408,133.718894 76.369509,131.852535 C78.5400517,130.815668 80.2971576,129.882488 82.1576227,129.571429 C85.4651163,129.09447 86.9121447,130.276498 86.9121447,130.276498 C87.2428941,128.928571 88.2351421,125.506912 82.9844961,124.677419 C82.7777778,123.723502 81.9509044,122.5 80.5452196,122.292627 C77.7751938,121.87788 65.9715762,120.9447 65.620155,120.923963 C64.5865633,120.923963 61.1963824,120.218894 64.3385013,115.739631 C64.5452196,115.387097 66.1989664,113.396313 66.1989664,113.396313 L71.4909561,118.373272 L71.0981912,118.808756 Z" id="Shape" fill="#FFFFFF"></path>
            <path d="M70.0205562,122.60331 C73.8667091,122.911885 76.6022083,123.158744 79.3582751,123.508462 C80.3866583,123.508462 80.7980115,124.742761 80.9625528,125.35991 C79.6462224,124.948477 77.5483208,124.948477 77.5483208,124.948477 L77.4454825,126.182776 C77.4454825,126.182776 79.2348692,125.565626 81.1476618,125.565626 C81.1476618,125.565626 85.1789237,125.565626 84.9938148,128.23994 C83.9037286,127.417074 81.6618534,127.828507 81.0242558,127.828507 C78.9674895,128.034224 77.1163999,129.062806 74.853957,130.091388 C72.7971907,131.11997 70.5347478,132.354269 68.0666282,133.033133 L72.1801608,128.713088 L68.0666282,127.355359 L71.1517776,124.578188 L66.2155385,121.903874 L69.7120412,122.212449 L70.0205562,122.60331 Z M64.3233136,112.111772 C62.5133592,114.168936 60.148078,117.172396 60.6622696,119.35299 C60.8679462,121.163295 63.5417424,122.274164 63.5417424,122.274164 L68.8893347,125.154194 L65.1871554,128.23994 L69.362391,129.474239 L65.0431818,133.794284 C63.8913926,134 62.6984682,134 61.4232731,134 C52.3735014,134 39.827227,128.651373 36.659807,128.651373 C32.9576276,128.548515 28.2270652,130.708537 28.2270652,130.708537 L30.6951847,128.034224 C30.6951847,128.034224 27.507197,128.651373 24.3192092,128.445656 L28.844095,125.462768 C24.9773744,125.339338 21.58371,124.22847 20,123.055886 C20,123.055886 27.1164114,122.47988 36.7832129,122.582738 L47.334424,122.994171 C44.0435979,121.759873 40.9584485,119.908425 39.6832534,116.616962 L45.9975259,117.645544 C43.4677034,116.040956 39.6215504,112.0912 38.9428175,108.902596 L45.9358229,111.371193 C44.7017631,109.992893 40.3825539,106.022566 39.5598474,101.291088 L45.25709,105.014555 C43.8173536,103.57454 39.9094977,95.8396025 40.5265276,93.5767218 L45.6684433,97.0327578 C43.2003238,93.9881547 40.3208509,85.9240707 42.3159143,82.797181 C43.858489,88.9069589 47.334424,91.1081247 47.334424,91.1081247 C45.0719811,87.8166618 40.135742,76.0908254 44.8663045,70.9479147 C46.1003642,82.6326078 51.0366033,86.5823632 51.0366033,86.5823632 C46.9230707,79.9994375 42.3981849,59.9215141 51.0366033,55.8689005 C49.3911903,68.8290355 53.5047229,75.823394 53.5047229,75.823394 C51.0366033,63.8918412 51.0366033,47.0230941 59.8806984,45.5830791 C55.5614892,58.3374976 58.6466386,68.2118862 58.6466386,68.2118862 C58.0296087,38.5887205 67.6964103,39.0001534 67.6964103,39.0001534 C67.6964103,39.0001534 66.0509972,47.4345269 66.0509972,62.4518262 L66.0509972,105.857993 C66.0509972,108.943739 65.8453206,110.58947 64.6112608,112.235202 L64.3233136,112.111772 Z" id="Shape" fill="#FA7921"></path>
        </g>
    </g>
</svg>