<svg xmlns="http://www.w3.org/2000/svg" viewBox="0 0 50 100">
    <path fill="#FFF" d="M1 11c-.56 0-1 .45-1 1v3c0 .56.45 1 1 1v2c-.56 0-1 .45-1 1v8c0 .54.45 1 1 1v1c-.56 0-1 .45-1 1v8c0 .54.45 1 1 1v46c0 2.75 2.23 5 5 5h39c2.77 0 5-2.24 5-5V28c.56 0 1-.45 1-1v-8c0-.54-.45-1-1-1V5c0-2.75-2.23-5-5-5H6C3.23 0 1 2.24 1 5v6zm21 73.5c0-1.93 1.57-3.5 3.5-3.5s3.5 1.57 3.5 3.5-1.57 3.5-3.5 3.5-3.5-1.57-3.5-3.5zM3 9h45v70H3V9zm18-3.5c0-.28.22-.5.5-.5h8c.27 0 .5.23.5.5 0 .28-.22.5-.5.5h-8c-.27 0-.5-.23-.5-.5z"/>
    <path fill="#FFF" fill-rule="nonzero" d="M34.2 57.45h8.66V28.92h-7.93V46.7l-2.3-2.25V30.28C32.6 21.95 33.6 18 33.6 18c-2.7 0-4.1 2.54-4.4 3.3-1.5.15-2.74 1.02-3.57 2.7-.47.96-.7 1.88-.78 2.33-3.18.73-3.45 6.38-3.25 7.4l-4.93-4.8H8.03v28.52h7.93V40.2l3.83 3.63c.3 1.04.6 1.46.6 1.46L18.9 44c-.27 2.8.5 4.2 1.25 5.3l-1.83-1.6c-.15 2.8 1.2 4.5 2.02 5.2l-2.4-1.2c-.17 1.7 1.5 4.1 2.47 4.6l-2-.3c.5 2.3 2.1 3.1 2.1 3.1s-3.5-.07-5.1-.07c-4.4 0-7.33.4-7.33.4s1.96 1.96 4.5 2.06l-2.25 1.4c1.6.5 3.17.3 3.17.3l-1.3 1.5s4.1-1.6 5.8-1.5c1.4.1 7.8 2.55 12.1 2.55 2.9 0 4.97-1.1 6.65-2 1.05-.5 1.9-.95 2.8-1.1 1.6-.23 2.3.34 2.3.34.16-.65.64-2.3-1.9-2.7-.1-.46-.5-1.05-1.18-1.15-1.34-.2-7.05-.65-7.22-.66-.5 0-2.14-.34-.62-2.5.1-.17.9-1.13.9-1.13l2.56 2.4z"/>
    <path fill="#FA7921" fill-rule="nonzero" d="M34.04 59.55c1.87.15 3.2.27 4.54.44.5 0 .7.6.78.9-.64-.2-1.66-.2-1.66-.2l-.05.6s.87-.3 1.8-.3c0 0 1.96 0 1.87 1.3-.53-.4-1.62-.2-1.93-.2-1 .1-1.9.6-3 1.1-1 .5-2.1 1.1-3.3 1.43l2-2.1-2-.66 1.5-1.35-2.4-1.3 1.7.15zm-2.77-5.1c-.88 1-2.03 2.46-1.78 3.52.1.88 1.4 1.42 1.4 1.42l2.6 1.4-1.8 1.5 2.03.6-2.1 2.1c-.56.1-1.14.1-1.76.1-4.4 0-10.5-2.6-12.04-2.6-1.8-.05-4.1 1-4.1 1l1.2-1.3s-1.55.3-3.1.2l2.2-1.45c-1.88-.06-3.53-.6-4.3-1.17 0 0 3.46-.28 8.16-.23l5.13.2c-1.6-.6-3.1-1.5-3.72-3.1l3.07.5c-1.23-.78-3.1-2.7-3.43-4.25l3.4 1.2c-.6-.67-2.7-2.6-3.1-4.9L22 51c-.7-.7-2.6-4.46-2.3-5.56l2.5 1.68c-1.2-1.48-2.6-5.4-1.63-6.92.75 2.97 2.44 4.04 2.44 4.04-1.1-1.6-3.5-7.3-1.2-9.8.6 5.68 3 7.6 3 7.6-2-3.2-4.2-12.96 0-14.93-.8 6.3 1.2 9.7 1.2 9.7-1.2-5.8-1.2-14 3.1-14.7-2.1 6.2-.6 11-.6 11-.3-14.4 4.4-14.2 4.4-14.2s-.8 4.1-.8 11.4v21.1c0 1.5-.1 2.3-.7 3.1z"/>
</svg>
