<?xml version="1.0" encoding="UTF-8"?>
<svg width="105px" height="186px" viewBox="0 0 105 186" version="1.1" xmlns="http://www.w3.org/2000/svg" xmlns:xlink="http://www.w3.org/1999/xlink">
    <!-- Generator: Sketch 47.1 (45422) - http://www.bohemiancoding.com/sketch -->
    <title>Group 2</title>
    <desc>Created with Sketch.</desc>
    <defs></defs>
    <g id="SVG's" stroke="none" stroke-width="1" fill="none" fill-rule="evenodd">
        <g id="Group-2" fill-rule="nonzero" fill="#FFFFFF">
            <g id="nationwide-copy-2">
                <path d="M2.05882353,22.7333333 C0.905882353,22.7333333 0,23.6633333 0,24.8 L0,31 C0,32.1573333 0.926470588,33.0666667 2.05882353,33.0666667 L2.05882353,37.2 C0.905882353,37.2 0,38.13 0,39.2666667 L0,55.8 C0,56.916 0.926470588,57.8666667 2.05882353,57.8666667 L2.05882353,59.9333333 C0.905882353,59.9333333 0,60.8633333 0,62 L0,78.5333333 C0,79.6493333 0.926470588,80.6 2.05882353,80.6 L2.05882353,175.666667 C2.05882353,181.35 6.65,186 12.3529412,186 L92.6470588,186 C98.35,186 102.941176,181.370667 102.941176,175.666667 L102.941176,57.8666667 C104.094118,57.8666667 105,56.9366667 105,55.8 L105,39.2666667 C105,38.1506667 104.073529,37.2 102.941176,37.2 L102.941176,10.3333333 C102.941176,4.65 98.35,0 92.6470588,0 L12.3529412,0 C6.65,0 2.05882353,4.62933333 2.05882353,10.3333333 L2.05882353,22.7333333 Z M45.2941176,174.633333 C45.2941176,170.644667 48.5264706,167.4 52.5,167.4 C56.4735294,167.4 59.7058824,170.644667 59.7058824,174.633333 C59.7058824,178.622 56.4735294,181.866667 52.5,181.866667 C48.5264706,181.866667 45.2941176,178.622 45.2941176,174.633333 Z M6.17647059,18.6 L98.8235294,18.6 L98.8235294,163.266667 L6.17647059,163.266667 L6.17647059,18.6 Z M43.2352941,11.3666667 C43.2352941,10.788 43.6882353,10.3333333 44.2647059,10.3333333 L60.7352941,10.3333333 C61.2911765,10.3333333 61.7647059,10.8086667 61.7647059,11.3666667 C61.7647059,11.9453333 61.3117647,12.4 60.7352941,12.4 L44.2647059,12.4 C43.7088235,12.4 43.2352941,11.9246667 43.2352941,11.3666667 Z" id="Shape"></path>
            </g>
            <g id="rocket-copy" transform="translate(24.000000, 25.000000)">
                <path d="M42.3740413,75.6741833 L54.6952846,87.4489601 L52.5493427,103.413902 L38.5401204,94.811073 C37.9717484,97.0987771 37.3666777,99.3684165 36.7249089,101.619992 C36.5393834,102.270886 36.0201608,102.774552 35.3615996,102.942454 C32.5950834,103.647785 29.8545043,104.00045 27.1398625,104.00045 C24.432445,104.00045 21.7250129,103.649659 19.0175655,102.948081 C18.3589455,102.777413 17.8413599,102.270809 17.6589293,101.618271 C17.0664292,99.498953 16.5043051,97.3542539 15.9725569,95.1841739 L1.78925338,103.413902 L0,87.4489601 L12.1145158,75.6757122 C10.7201769,66.591495 9.79268832,57.1171981 9.33204992,47.2528217 C8.39418607,27.1688641 14.3228546,11.4179235 27.1180556,0 C39.693073,11.9526837 45.6519837,27.7036243 44.9947877,47.2528217 C44.6672662,56.9954014 43.793684,66.4691886 42.3740413,75.6741833 Z M27.1180556,47.1345893 C31.1259553,47.1345893 34.375,43.9010843 34.375,39.9123538 C34.375,35.9236234 31.1259553,32.6901184 27.1180556,32.6901184 C23.1101559,32.6901184 19.8611112,35.9236234 19.8611112,39.9123538 C19.8611112,43.9010843 23.1101559,47.1345893 27.1180556,47.1345893 Z" id="Combined-Shape"></path>
                <path d="M15.5868738,106.619835 C16.0448371,106.619835 17.104258,106.970651 18.0391738,107.198774 C18.7702761,112.840735 21.8194015,118.075304 27.18655,122.902483 C32.3661306,118.135879 35.4265828,112.90131 36.3679067,107.198774 C37.8174239,106.805733 38.4211614,106.619835 38.8854848,106.619835 C39.6199399,115.109129 35.736838,123.598423 27.2361792,132.087718 C18.3539023,123.598423 14.4708005,115.109129 15.5868738,106.619835 Z" id="Rectangle-25"></path>
            </g>
        </g>
    </g>
</svg>