<?xml version="1.0" encoding="UTF-8"?>
<svg width="50px" height="120px" viewBox="0 0 50 120" version="1.1" xmlns="http://www.w3.org/2000/svg" xmlns:xlink="http://www.w3.org/1999/xlink">
    <!-- Generator: Sketch 47.1 (45422) - http://www.bohemiancoding.com/sketch -->
    <title>Group 44 Copy</title>
    <desc>Created with Sketch.</desc>
    <defs></defs>
    <g id="Project-Pages" stroke="none" stroke-width="1" fill="none" fill-rule="evenodd">
        <g id="Group-44-Copy" fill="#FFFFFF">
            <path d="M38.5218557,68.8464374 L49.722986,79.5588284 L47.7721297,94.0833241 L35.0364731,86.2566905 C34.5197713,88.3379852 33.969707,90.4028451 33.3862808,92.4512706 C33.2176213,93.043438 32.7456007,93.5016604 32.1469087,93.6544133 C29.631894,94.296105 27.1404585,94.6169509 24.6726023,94.6169509 C22.2113136,94.6169509 19.7500117,94.2978104 17.2886959,93.6595323 C16.6899505,93.5042626 16.2194181,93.0433673 16.0535721,92.4497054 C15.5149356,90.5216039 15.0039137,88.5704114 14.5205063,86.5961281 L1.62659398,94.0833241 L0,79.5588284 L11.0131962,68.8478284 C9.7456154,60.5832398 8.90244393,51.9637667 8.48368175,42.9894092 C7.63107825,24.717538 13.0207769,10.3877349 24.6527778,0 C36.0846118,10.8742461 41.5018034,25.2040492 40.9043525,42.9894092 C40.6066056,51.8529592 39.81244,60.4719686 38.5218557,68.8464374 Z M24.6527778,42.8818444 C28.296323,42.8818444 31.25,39.9400842 31.25,36.3112392 C31.25,32.6823942 28.296323,29.740634 24.6527778,29.740634 C21.0092326,29.740634 18.0555556,32.6823942 18.0555556,36.3112392 C18.0555556,39.9400842 21.0092326,42.8818444 24.6527778,42.8818444 Z" id="Combined-Shape"></path>
            <path d="M14.4059964,96.8299712 C14.8223267,96.8299712 15.7854366,97.1491351 16.6353601,97.3566756 C17.2999985,102.489587 20.0719307,107.251864 24.9511566,111.643508 C29.6598662,107.306974 32.4420955,102.544697 33.2978445,97.3566756 C34.6155874,96.9990968 35.1644397,96.8299712 35.5865519,96.8299712 C36.2542383,104.553314 32.7241457,112.276657 24.9962741,120 C16.9214769,112.276657 13.3913843,104.553314 14.4059964,96.8299712 Z" id="Rectangle-25"></path>
        </g>
    </g>
</svg>